<svg width="171pt" height="38pt" viewBox="-1.4 -1.4 173 41" xmlns="http://www.w3.org/2000/svg"><g stroke-linecap="round" fill-rule="evenodd" stroke="#b97d10" stroke-width="0.7mm" fill="#aa0505"><path d="M 106.641 20.264 L 107.324 20.264 Q 112.939 5.176 114.746 1.367 A 191.849 191.849 0 0 0 115.935 1.224 Q 117.633 1.013 118.823 0.83 A 2344.36 2344.36 0 0 1 119.948 0.657 Q 120.39 0.59 120.786 0.529 A 1186.728 1186.728 0 0 1 121.533 0.415 A 68.414 68.414 0 0 0 122.705 0.226 A 87.7 87.7 0 0 0 123.975 0 Q 121.582 14.16 119.971 35.693 L 111.23 37.256 Q 111.23 35.931 111.48 33.384 A 126.998 126.998 0 0 1 111.67 31.592 L 112.354 25.732 A 197.56 197.56 0 0 1 112.595 23.636 Q 112.952 20.679 113.281 18.848 L 112.842 18.848 A 116.351 116.351 0 0 1 111.821 21.838 A 137.61 137.61 0 0 1 111.304 23.267 A 5307.455 5307.455 0 0 0 109.57 27.979 A 5307.455 5307.455 0 0 1 107.837 32.69 A 84.162 84.162 0 0 0 106.855 35.504 A 70.3 70.3 0 0 0 106.348 37.109 Q 105.139 37.143 104.185 37.2 A 39.876 39.876 0 0 0 103.369 37.256 L 100.439 37.402 L 102.051 18.848 L 101.318 18.848 Q 101.221 19.482 100.806 21.021 Q 100.391 22.559 99.878 24.536 A 158.125 158.125 0 0 1 99.054 27.585 A 177.751 177.751 0 0 1 98.755 28.638 Q 98.145 30.762 97.607 32.568 A 366.324 366.324 0 0 1 97.204 33.991 Q 96.693 35.783 96.403 36.708 A 33.99 33.99 0 0 1 96.338 36.914 L 88.086 37.451 A 1272.456 1272.456 0 0 0 91.745 26.245 Q 96.753 10.645 98.877 2.295 A 47.103 47.103 0 0 0 102.222 2.18 A 39.102 39.102 0 0 0 104.102 2.002 A 142.647 142.647 0 0 1 106.641 1.721 A 177.259 177.259 0 0 1 109.375 1.465 A 183.51 183.51 0 0 0 109.232 2.536 Q 109.148 3.18 109.058 3.906 A 135.989 135.989 0 0 1 108.875 5.31 A 159.034 159.034 0 0 1 108.667 6.787 A 369.208 369.208 0 0 1 108.203 9.888 A 311.402 311.402 0 0 0 108.073 10.739 Q 107.896 11.911 107.669 13.469 A 944.868 944.868 0 0 0 107.593 13.989 Q 107.235 16.443 106.669 20.083 A 1122.497 1122.497 0 0 1 106.641 20.264 Z M 64.795 36.279 L 57.471 37.988 Q 62.146 14.694 63.552 4.446 A 104.95 104.95 0 0 0 63.916 1.514 Q 65.479 1.416 66.846 1.294 A 77.155 77.155 0 0 1 69.58 1.099 A 76.124 76.124 0 0 0 70.557 1.04 Q 70.945 1.015 71.298 0.986 A 43.449 43.449 0 0 0 71.973 0.928 A 1168.414 1168.414 0 0 1 72.275 2.773 Q 72.677 5.238 72.959 7.046 A 383.605 383.605 0 0 1 72.998 7.3 A 625.727 625.727 0 0 0 73.186 8.501 Q 73.418 9.976 73.599 11.076 A 207.244 207.244 0 0 0 73.657 11.426 A 612.573 612.573 0 0 1 74.109 14.171 A 557.699 557.699 0 0 1 74.17 14.551 A 98.873 98.873 0 0 0 74.607 17.026 Q 74.822 18.157 75.045 19.165 A 57.905 57.905 0 0 0 75.195 19.824 A 163.086 163.086 0 0 0 75.349 19.007 Q 75.415 18.647 75.487 18.253 A 284.962 284.962 0 0 0 75.635 17.432 A 235.04 235.04 0 0 1 75.891 16.022 A 281.344 281.344 0 0 1 76.172 14.526 A 133.331 133.331 0 0 1 76.807 11.401 Q 77.148 9.814 77.661 7.3 A 3414.812 3414.812 0 0 1 77.934 5.962 Q 78.369 3.833 78.955 0.977 L 85.059 0.244 A 991.961 991.961 0 0 0 82.629 11.554 Q 79.714 25.558 78.644 33.277 A 108.056 108.056 0 0 0 78.418 35.01 A 2.527 2.527 0 0 0 78.098 35.039 Q 77.187 35.165 74.39 35.84 A 257.323 257.323 0 0 0 73.196 36.131 Q 70.819 36.716 70.264 36.914 A 585.219 585.219 0 0 0 70.006 33.864 Q 69.635 29.62 69.36 27.368 A 1418.564 1418.564 0 0 0 69.188 25.96 Q 69.021 24.603 68.9 23.643 A 305.427 305.427 0 0 0 68.799 22.852 A 53.256 53.256 0 0 0 68.611 21.153 Q 68.516 20.394 68.392 19.549 A 107.158 107.158 0 0 0 68.115 17.773 Q 68.015 18.411 67.868 19.222 A 107.615 107.615 0 0 1 67.725 19.995 A 95.997 95.997 0 0 0 67.48 21.344 A 120.586 120.586 0 0 0 67.236 22.803 A 320.039 320.039 0 0 1 66.791 25.403 Q 66.275 28.349 65.525 32.385 A 1318.314 1318.314 0 0 1 64.795 36.279 Z M 149.805 36.279 L 142.48 37.988 Q 147.156 14.694 148.561 4.446 A 104.95 104.95 0 0 0 148.926 1.514 Q 150.488 1.416 151.855 1.294 A 77.155 77.155 0 0 1 154.59 1.099 A 76.124 76.124 0 0 0 155.567 1.04 Q 155.954 1.015 156.308 0.986 A 43.449 43.449 0 0 0 156.982 0.928 A 1168.414 1168.414 0 0 1 157.285 2.773 Q 157.686 5.238 157.968 7.046 A 383.605 383.605 0 0 1 158.008 7.3 A 625.727 625.727 0 0 0 158.195 8.501 Q 158.428 9.976 158.609 11.076 A 207.244 207.244 0 0 0 158.667 11.426 A 612.573 612.573 0 0 1 159.118 14.171 A 557.699 557.699 0 0 1 159.18 14.551 A 98.873 98.873 0 0 0 159.616 17.026 Q 159.831 18.157 160.055 19.165 A 57.905 57.905 0 0 0 160.205 19.824 A 163.086 163.086 0 0 0 160.358 19.007 Q 160.425 18.647 160.497 18.253 A 284.962 284.962 0 0 0 160.645 17.432 A 235.04 235.04 0 0 1 160.901 16.022 A 281.344 281.344 0 0 1 161.182 14.526 A 133.331 133.331 0 0 1 161.816 11.401 Q 162.158 9.814 162.671 7.3 A 3414.812 3414.812 0 0 1 162.944 5.962 Q 163.379 3.833 163.965 0.977 L 170.068 0.244 A 991.961 991.961 0 0 0 167.639 11.554 Q 164.724 25.558 163.654 33.277 A 108.056 108.056 0 0 0 163.428 35.01 A 2.527 2.527 0 0 0 163.108 35.039 Q 162.196 35.165 159.399 35.84 A 257.323 257.323 0 0 0 158.206 36.131 Q 155.829 36.716 155.273 36.914 A 585.219 585.219 0 0 0 155.016 33.864 Q 154.645 29.62 154.37 27.368 A 1418.564 1418.564 0 0 0 154.198 25.96 Q 154.031 24.603 153.91 23.643 A 305.427 305.427 0 0 0 153.809 22.852 A 53.256 53.256 0 0 0 153.621 21.153 Q 153.526 20.394 153.402 19.549 A 107.158 107.158 0 0 0 153.125 17.773 Q 153.024 18.411 152.877 19.222 A 107.615 107.615 0 0 1 152.734 19.995 A 95.997 95.997 0 0 0 152.49 21.344 A 120.586 120.586 0 0 0 152.246 22.803 A 320.039 320.039 0 0 1 151.801 25.403 Q 151.284 28.349 150.535 32.385 A 1318.314 1318.314 0 0 1 149.805 36.279 Z M 33.301 34.229 L 25.537 36.963 A 916.604 916.604 0 0 1 24.654 33.822 Q 21.899 23.955 21.65 22.048 A 3.598 3.598 0 0 1 21.631 21.875 L 20.996 22.07 Q 19.762 28.949 19.015 33.28 A 623.999 623.999 0 0 0 18.604 35.693 L 10.498 37.793 A 1012.617 1012.617 0 0 0 12.79 26.404 Q 15.533 12.318 16.497 4.649 A 105.842 105.842 0 0 0 16.699 2.93 Q 22.363 1.172 29.395 1.172 Q 34.668 1.172 35.645 4.834 Q 35.866 5.683 35.92 6.839 A 16.681 16.681 0 0 1 35.938 7.617 A 9.317 9.317 0 0 1 35.745 9.457 A 12.83 12.83 0 0 1 35.254 11.206 A 16.665 16.665 0 0 1 33.398 14.893 Q 30.957 18.457 27.393 20.361 A 204.23 204.23 0 0 1 29.193 24.347 A 165.533 165.533 0 0 1 30.786 28.101 Q 31.81 30.602 32.615 32.56 A 2239.157 2239.157 0 0 0 33.301 34.229 Z M 134.424 29.199 L 130.078 29.199 L 128.076 36.377 A 2910.918 2910.918 0 0 0 127.182 36.494 Q 126.789 36.545 126.359 36.601 A 5050.448 5050.448 0 0 0 125.464 36.719 A 208.734 208.734 0 0 1 122.51 37.085 A 367.052 367.052 0 0 0 119.872 37.403 A 405.16 405.16 0 0 0 119.482 37.451 Q 121.484 30.811 122.876 26.221 Q 124.268 21.631 125.146 18.677 A 1952.856 1952.856 0 0 0 126.88 12.817 A 2030.441 2030.441 0 0 1 128.338 7.883 A 1826.85 1826.85 0 0 1 128.54 7.202 Q 129.346 4.492 129.98 2.246 Q 137.426 1.723 141.952 1.001 A 52.055 52.055 0 0 0 143.75 0.684 Q 143.448 4.007 143.215 8.161 A 341.653 341.653 0 0 0 143.018 12.109 A 3191.764 3191.764 0 0 0 142.432 24.731 A 2473.763 2473.763 0 0 0 141.943 36.328 A 112.771 112.771 0 0 1 139.174 36.755 A 103.991 103.991 0 0 1 139.087 36.768 A 123.215 123.215 0 0 0 136.945 37.088 A 137.042 137.042 0 0 0 136.206 37.207 A 835.912 835.912 0 0 1 134.784 37.439 A 620.173 620.173 0 0 1 133.496 37.646 A 961.155 961.155 0 0 0 133.982 33.323 Q 134.222 31.138 134.424 29.199 Z M 60.284 14.954 A 24.439 24.439 0 0 0 60.498 11.816 A 36.74 36.74 0 0 0 60.485 10.808 Q 60.355 6.094 58.984 3.662 A 8.17 8.17 0 0 0 58.945 3.594 Q 57.685 1.446 55.486 0.717 A 7.934 7.934 0 0 0 52.979 0.342 A 10.69 10.69 0 0 0 50.804 0.565 Q 48.599 1.022 46.484 2.414 A 18.927 18.927 0 0 0 43.457 4.932 A 29.041 29.041 0 0 0 39.874 9.432 A 36.183 36.183 0 0 0 36.67 15.674 A 45.999 45.999 0 0 0 36.52 16.052 Q 34.082 22.283 34.082 27.686 Q 34.082 30.589 34.771 32.71 A 8.736 8.736 0 0 0 36.23 35.498 Q 38.184 37.939 41.553 37.939 A 9.943 9.943 0 0 0 43.785 37.68 Q 45.41 37.307 47.087 36.397 A 20.021 20.021 0 0 0 49.902 34.521 A 22.725 22.725 0 0 0 51.58 33.052 A 27.945 27.945 0 0 0 53.931 30.469 Q 55.859 28.076 57.324 25.049 A 29.219 29.219 0 0 0 58.18 23.1 A 33.775 33.775 0 0 0 59.644 18.408 A 39.811 39.811 0 0 0 59.696 18.183 Q 60.084 16.499 60.284 14.954 Z M 7.178 2.734 L 14.99 1.514 A 9568.955 9568.955 0 0 0 13.056 11.382 Q 9.5 29.572 8.378 35.788 A 230.048 230.048 0 0 0 8.203 36.768 Q 6.836 36.768 3.467 37.207 Q 0.393 37.608 0.042 37.684 A 0.236 0.236 0 0 0 0 37.695 A 155.919 155.919 0 0 0 1.769 30.608 A 194.7 194.7 0 0 0 2.881 25.342 Q 5.853 10.336 7.131 3.003 A 305.426 305.426 0 0 0 7.178 2.734 Z M 53.564 14.893 A 10.473 10.473 0 0 0 53.482 13.515 Q 53.125 10.84 51.221 10.84 A 6.019 6.019 0 0 0 47.584 12.087 Q 46.681 12.751 45.85 13.77 A 15.009 15.009 0 0 0 44.391 15.956 Q 43.765 17.083 43.214 18.446 A 30.933 30.933 0 0 0 42.578 20.166 A 23.207 23.207 0 0 0 41.756 23.486 A 17.798 17.798 0 0 0 41.504 26.416 A 3.61 3.61 0 0 0 41.736 27.74 Q 42.125 28.734 43.164 29.346 A 1.897 1.897 0 0 0 44.227 29.687 A 2.319 2.319 0 0 0 44.287 29.687 A 5.822 5.822 0 0 0 48.267 28.149 A 12.742 12.742 0 0 0 50.713 25.183 A 14.951 14.951 0 0 0 51.172 24.365 Q 52.344 22.119 52.954 19.556 A 24.348 24.348 0 0 0 53.392 17.254 Q 53.553 16.091 53.564 15.041 A 14.616 14.616 0 0 0 53.564 14.893 Z M 135.498 7.324 L 131.25 24.219 L 134.863 23.975 A 3.805 3.805 0 0 1 134.868 23.802 Q 134.882 23.505 134.937 22.974 A 736.711 736.711 0 0 1 135.005 22.312 Q 135.052 21.86 135.107 21.338 A 477.915 477.915 0 0 1 135.51 16.296 A 382.251 382.251 0 0 1 135.937 11.621 L 136.279 7.275 L 135.498 7.324 Z M 26.025 8.105 L 23.877 8.154 L 22.266 16.113 A 5.298 5.298 0 0 0 23.586 15.786 Q 24.802 15.331 26.309 14.276 A 23.929 23.929 0 0 0 27.197 13.623 A 19.232 19.232 0 0 0 28.377 12.654 Q 30.119 11.093 30.261 9.963 A 1.581 1.581 0 0 0 30.273 9.766 A 1.244 1.244 0 0 0 29.592 8.649 Q 29.04 8.322 28.042 8.198 A 9.018 9.018 0 0 0 27.588 8.154 A 25.043 25.043 0 0 0 26.025 8.105 Z" vector-effect="non-scaling-stroke"/></g></svg>